<svg xmlns="http://www.w3.org/2000/svg" fill="none" viewBox="0 0 24 24" id="CodeOptimisation"><g fill="#0e2bd5" class="color000000 svgShape"><path d="m21.3656 2h-18.63747c-1.50469 0-2.72813 1.2-2.72813 2.67188v14.81252c0 1.5 1.25156 2.7656 2.72813 2.7656h18.63747c1.4531 0 2.6344-1.2422 2.6344-2.7656v-14.81252c0-1.5-1.1578-2.67188-2.6344-2.67188zm.7594 17.4844c0 .4922-.3422.8906-.7594.8906h-18.63747c-.44532 0-.85313-.4266-.85313-.8906v-14.81252c0-.44063.38438-.79688.85313-.79688h18.63747c.4453 0 .7594.32812.7594.79688z" fill="#0e2bd5" class="color000000 svgShape"></path><path d="M8.26875 10.7375c.17344-.1172.30469-.2062.39844-.2719.20625-.1406.54844-.3797.54844-.87653 0-.51563-.42188-.9375-.9375-.9375-.23438 0-.44532.08437-.60938.225-.24844.18281-1.77656 1.19533-3.84844 2.55933-.27656.1829-.45.4829-.45937.811-.01406.3281.13594.6422.39844.8484l3.94687 3.0656c.16875.1313.375.1969.57656.1969.28125 0 .55782-.1265.74063-.3609.31875-.4078.24375-.9985-.16406-1.3172l-3.00469-2.3344c.37031-.2437.79687-.525 1.20469-.7969.51093-.3375.91875-.614 1.20937-.8109zm-.6375-1.82343c-.02812.02812-.05625.05625-.07969.08437.02344-.03281.05157-.06094.07969-.08437zM20.1938 11.4969c-2.0766-1.3641-3.6-2.38128-3.8485-2.55941-.164-.14062-.375-.225-.6094-.225-.5156 0-.9375.42188-.9375.9375 0 .49691.3422.73591.5485.87661.0937.0656.225.1546.3984.2718.2906.1969.7031.4688 1.2188.811.4078.2718.8297.5531 1.2047.7968l-3.0047 2.3344c-.4078.3188-.4828.9047-.1641 1.3172.1828.2391.4594.3609.7406.3609.2016 0 .4032-.0656.5766-.1968l3.9469-3.0657c.2625-.2062.4125-.5203.3984-.8484-.0234-.3281-.1969-.6328-.4687-.8109zm-3.8157-2.53128c.0282.02344.0516.05625.0797.08437-.0234-.02812-.0515-.05625-.0797-.08437zM13.3688 7.18437c-.5016-.13593-1.0125.16406-1.1485.66094l-2.35311 8.78909c-.13594.5015.16411 1.0125.66091 1.1484.0797.0234.1641.0328.2438.0328.4125 0 .7922-.2765.9047-.6937l2.3531-8.78909c.1359-.50156-.1594-1.01719-.6609-1.14844z" fill="#0e2bd5" class="color000000 svgShape"></path></g></svg>