<svg fill="#1C2033" width="80" height="80" viewBox="0 0 64 64" xmlns="http://www.w3.org/2000/svg"><path d="M35.9008 62.3002H28.6008C26.4008 62.3002 24.6008 60.4002 24.6008 58.1002V36.6002H19.3008C17.1008 36.6002 15.3008 34.7002 15.3008 32.4002V26.0002C15.3008 23.7002 17.1008 21.8002 19.3008 21.8002H24.5008V16.5002C24.5008 7.8002 29.9008 1.7002 37.7008 1.7002H43.2008C45.4008 1.7002 47.2008 3.6002 47.2008 5.9002V13.4002C47.2008 15.7002 45.4008 17.6002 43.2008 17.6002H39.8008V21.7002H44.5008H44.6008C45.8008 21.8002 46.9008 22.3002 47.7008 23.2002C48.5008 24.2002 48.8008 25.4002 48.6008 26.7002L47.4008 33.0002C47.1008 35.0002 45.5008 36.4002 43.5008 36.4002H39.8008V58.0002C39.8008 60.4002 38.1008 62.3002 35.9008 62.3002ZM29.1008 57.8002H35.3008V34.2002C35.3008 33.0002 36.3008 31.9002 37.6008 31.9002H43.0008L44.1008 26.2002H37.6008C36.4008 26.2002 35.3008 25.2002 35.3008 23.9002V17.2002C35.3008 15.3002 35.8008 13.0002 39.4008 13.0002H42.7008V6.3002H37.7008C32.4008 6.3002 29.0008 10.3002 29.0008 16.6002V24.1002C29.0008 25.3002 28.0008 26.4002 26.7008 26.4002H19.8008V32.1002H26.8008C28.0008 32.1002 29.1008 33.1002 29.1008 34.4002V57.8002Z"/></svg>