<svg xmlns="http://www.w3.org/2000/svg" viewBox="0 0 48 48" id="setting"><path fill="#bfbfbf" d="M1,41.34,16.27,26.07a8,8,0,0,1,12.65-8.38L23.37,20.9l-.24,3.6,3.24,1.6,5.55-3.21a8,8,0,0,1-10,8.84L6.66,47Z"></path><path fill="#424242" d="M46.1,27.58l-2.29-.95a18.54,18.54,0,0,0,0-5.26l2.29-.95a3.07,3.07,0,0,0,1.66-4l-1.59-3.83a3.07,3.07,0,0,0-4-1.66l-2.29.95a19.38,19.38,0,0,0-3.73-3.73l1-2.29a3,3,0,0,0-1.66-4L31.6.24a3.08,3.08,0,0,0-4,1.66l-.95,2.29a17.83,17.83,0,0,0-5.26,0L20.42,1.9a3.07,3.07,0,0,0-4-1.66L12.57,1.83a3,3,0,0,0-1.66,4l.95,2.29a19.38,19.38,0,0,0-3.73,3.73l-2.29-.95a3.07,3.07,0,0,0-4,1.66L.24,16.4a3.06,3.06,0,0,0,1.66,4l2.29.95a18.54,18.54,0,0,0,0,5.26l-2.29.95a3.07,3.07,0,0,0-1.66,4l1.59,3.83a3,3,0,0,0,1.92,1.74L.29,40.63a1,1,0,1,0,1.42,1.42L17,26.78a1,1,0,0,0,.25-1A7,7,0,0,1,27,17.66L22.87,20a1,1,0,0,0-.5.8l-.24,3.6a1,1,0,0,0,.56,1L25.93,27a1,1,0,0,0,.94,0L31,24.59a7,7,0,0,1-8.79,6.18,1,1,0,0,0-1,.25L6,46.29A1,1,0,0,0,6.66,48a1,1,0,0,0,.71-.29l3.45-3.46a3,3,0,0,0,1.75,1.92l3.83,1.59a3.07,3.07,0,0,0,4-1.66l.95-2.29a17.83,17.83,0,0,0,5.26,0l.95,2.29A3.07,3.07,0,0,0,30.42,48c.79,0,.84-.09,5-1.83a3,3,0,0,0,1.66-4l-1-2.29a19.38,19.38,0,0,0,3.73-3.73l2.29,1a3.07,3.07,0,0,0,4-1.66l1.59-3.83A3.06,3.06,0,0,0,46.1,27.58ZM22.24,32.83A9,9,0,0,0,32.91,22.75,1,1,0,0,0,31.42,22L26.33,25,24.17,23.9l.16-2.4,5.09-2.94a1,1,0,0,0,.11-1.66,9,9,0,0,0-14.36,8.86l-2.42,2.42a12,12,0,1,1,7.07,7.07Zm23.68-2-1.59,3.83a1.09,1.09,0,0,1-1.41.58l-3-1.25a1,1,0,0,0-1.2.34,17.79,17.79,0,0,1-4.37,4.37,1,1,0,0,0-.34,1.2c1.34,3.24,1.47,3.29,1.25,3.84a1.1,1.1,0,0,1-.58.58l-3.83,1.59a1.09,1.09,0,0,1-1.42-.58l-1.25-3a1,1,0,0,0-1.09-.61,16.36,16.36,0,0,1-6.16,0,1,1,0,0,0-1.09.61l-1.25,3a1.09,1.09,0,0,1-1.42.58l-3.83-1.59a1.09,1.09,0,0,1-.58-1.41l.43-1,5.12-5.13a14,14,0,1,0-7.07-7.08L6.1,34.82l-1,.43a1.09,1.09,0,0,1-1.41-.58L2.08,30.84a1.1,1.1,0,0,1,.58-1.42l3-1.25a1,1,0,0,0,.61-1.09,16.79,16.79,0,0,1,0-6.16,1,1,0,0,0-.61-1.09l-3-1.25a1.1,1.1,0,0,1-.58-1.42l1.59-3.83a1.09,1.09,0,0,1,1.41-.58l3,1.25a1,1,0,0,0,1.2-.34,17.79,17.79,0,0,1,4.37-4.37A1,1,0,0,0,14,8.09l-1.25-3a1.08,1.08,0,0,1,.58-1.41l3.83-1.59a1.1,1.1,0,0,1,1.42.58l1.25,3a1,1,0,0,0,1.09.61,16.36,16.36,0,0,1,6.16,0,1,1,0,0,0,1.09-.61l1.25-3a1.09,1.09,0,0,1,1.42-.58l3.83,1.59a1.1,1.1,0,0,1,.58.58c.22.54.09.59-1.25,3.84a1,1,0,0,0,.34,1.2,17.79,17.79,0,0,1,4.37,4.37,1,1,0,0,0,1.2.34l3-1.25a1.09,1.09,0,0,1,1.41.58l1.59,3.83a1.1,1.1,0,0,1-.58,1.42l-3,1.25a1,1,0,0,0-.61,1.09,16.79,16.79,0,0,1,0,6.16,1,1,0,0,0,.61,1.09l3,1.25A1.1,1.1,0,0,1,45.92,30.84Z"></path><path fill="#fc6459" d="M17.11 8.37a1 1 0 0 1-.92-.62L15.42 5.9A1 1 0 0 1 16 4.6a1 1 0 0 1 1.31.54L18 7A1 1 0 0 1 17.11 8.37zM30.89 8.37A1 1 0 0 1 30 7l.77-1.85A1 1 0 0 1 32 4.6a1 1 0 0 1 .54 1.3l-.77 1.85A1 1 0 0 1 30.89 8.37zM5.52 32.65a1 1 0 0 1-.38-1.92L7 30a1 1 0 0 1 .76 1.85C5.8 32.62 5.79 32.65 5.52 32.65zM7.37 18.11c-.28 0-.25 0-2.23-.84a1 1 0 0 1 .77-1.85l1.84.77A1 1 0 0 1 7.37 18.11zM31.65 43.48a1 1 0 0 1-.92-.62L30 41a1 1 0 0 1 1.85-.76l.77 1.85A1 1 0 0 1 31.65 43.48zM16.35 43.48a1 1 0 0 1-.93-1.38l.77-1.85A1 1 0 0 1 18 41l-.77 1.85A1 1 0 0 1 16.35 43.48zM40.63 18.11a1 1 0 0 1-.38-1.92l1.84-.77a1 1 0 1 1 .77 1.85C40.91 18.08 40.9 18.11 40.63 18.11zM42.48 32.65c-.28 0-.25 0-2.23-.84A1 1 0 0 1 41 30l1.85.77A1 1 0 0 1 42.48 32.65z"></path></svg>